<svg id="Layer_1" data-name="Layer 1" xmlns="http://www.w3.org/2000/svg" viewBox="0 0 500 500"><defs><style>.cls-1{fill:#349ea3;}</style></defs><path id="path16" class="cls-1" d="M130.77,110.64l-8.29-8.51a16.86,16.86,0,0,1-14.23,15.36l8.49,7.91L421.28,409.31Zm20.1,82.28V362.41a16.75,16.75,0,0,1,22.64-1.51V247.19L357,426.1h31.62Zm213.75-39.15a16.85,16.85,0,0,1-11.72-4.71V263.77L172.76,84.87H137.87L375.56,317.54V149.71A16.75,16.75,0,0,1,364.62,153.77Z"/><path id="path18" class="cls-1" d="M105.68,73.9a26.95,26.95,0,1,0,26.93,27v0A27,27,0,0,0,105.68,73.9Zm2.57,43.54a15.81,15.81,0,0,1-2.57.2,16.87,16.87,0,1,1,16.85-16.88v1.32A16.86,16.86,0,0,1,108.25,117.44Z"/><path id="path20" class="cls-1" d="M364.62,110a26.95,26.95,0,0,0,0,53.88,26.45,26.45,0,0,0,10.94-2.33A26.93,26.93,0,0,0,364.62,110Zm10.94,39.74a16.85,16.85,0,1,1,5.91-12.81A16.84,16.84,0,0,1,375.56,149.71Z"/><path id="path22" class="cls-1" d="M173.55,349.26A27,27,0,1,0,190,374.08a26.95,26.95,0,0,0-16.44-24.82ZM163,390.93a16.85,16.85,0,1,1,16.86-16.85A16.85,16.85,0,0,1,163,390.93Z"/></svg>