<?xml version="1.0" encoding="UTF-8"?>
<svg version="1.1" viewBox="0 0 401.91 268.45" xmlns="http://www.w3.org/2000/svg" xmlns:cc="http://creativecommons.org/ns#" xmlns:dc="http://purl.org/dc/elements/1.1/" xmlns:rdf="http://www.w3.org/1999/02/22-rdf-syntax-ns#" xmlns:xlink="http://www.w3.org/1999/xlink">
 <metadata>
  <rdf:RDF>
   <cc:Work rdf:about="">
    <dc:format>image/svg+xml</dc:format>
    <dc:type rdf:resource="http://purl.org/dc/dcmitype/StillImage"/>
    <dc:title>Asset 3</dc:title>
   </cc:Work>
  </rdf:RDF>
 </metadata>
 <defs>
  <style>.cls-1{fill:url(#linear-gradient);}.cls-2{fill:url(#linear-gradient-2);}.cls-3{fill:url(#linear-gradient-3);}.cls-4{fill:url(#linear-gradient-4);}</style>
  <linearGradient id="linear-gradient" x1="116.31" x2="303.22" y1="108.43" y2="108.43" gradientUnits="userSpaceOnUse">
   <stop stop-color="#2ab7af" offset=".21"/>
   <stop stop-color="#df6c00" offset=".8"/>
  </linearGradient>
  <linearGradient id="linear-gradient-2" x1="99.05" x2="276.74" y1="-2.84" y2="211" xlink:href="#linear-gradient"/>
  <linearGradient id="linear-gradient-3" x1="179.93" x2="357.61" y1="-70.03" y2="143.79" xlink:href="#linear-gradient"/>
  <linearGradient id="linear-gradient-4" x1="39.13" x2="216.81" y1="46.99" y2="260.8" xlink:href="#linear-gradient"/>
  <linearGradient id="linearGradient875" x1="116.31" x2="303.22" y1="108.43" y2="108.43" gradientUnits="userSpaceOnUse" xlink:href="#linear-gradient"/>
 </defs>
 <title>Asset 3</title>
 <path class="cls-1" d="m129.76 21.94-4.95-5.08a10.07 10.07 0 0 1-8.5 9.17l5.07 4.72 181.84 169.52zm12 49.13v101.2a10 10 0 0 1 13.52-0.9v-67.9l109.57 106.83h18.88zm127.63-23.38a10.05 10.05 0 0 1-7-2.81v68.49l-107.56-106.82h-20.83l141.92 138.93v-100.21a10 10 0 0 1-6.53 2.42z" fill="url(#linearGradient875)"/>
 <path class="cls-2" d="m114.78 0a16.09 16.09 0 1 0 16.08 16.09 16.1 16.1 0 0 0-16.08-16.09zm1.53 26a9.67 9.67 0 0 1-1.53 0.12 10.07 10.07 0 1 1 10.06-10.06v0.77a10.07 10.07 0 0 1-8.53 9.17z" fill="url(#linear-gradient-2)"/>
 <path class="cls-3" d="m269.39 21.54a16.09 16.09 0 0 0 0 32.17 15.83 15.83 0 0 0 6.53-1.39 16.08 16.08 0 0 0-6.53-30.78zm6.53 23.73a10.06 10.06 0 1 1 3.53-7.65 10 10 0 0 1-3.53 7.65z" fill="url(#linear-gradient-3)"/>
 <path class="cls-4" d="m155.3 164.42a16.09 16.09 0 1 0 9.82 14.82 16 16 0 0 0-9.82-14.82zm-6.3 24.88a10.06 10.06 0 1 1 10.07-10.06 10.07 10.07 0 0 1-10.07 10.06z" fill="url(#linear-gradient-4)"/>
 <g fill="#fff">
  <path d="m2.27 268.45a2.14 2.14 0 0 1-1.6-0.67 2.13 2.13 0 0 1-0.67-1.6v-31.32a2.09 2.09 0 0 1 1.55-2.15 2.1 2.1 0 0 1 2.55 0.78l20 26v-24.63a2.29 2.29 0 0 1 4.57 0v31.32a2.08 2.08 0 0 1-1.55 2.15 2.18 2.18 0 0 1-0.72 0.12 2.22 2.22 0 0 1-1.83-0.9l-20-26v24.62a2.13 2.13 0 0 1-0.67 1.6 2.21 2.21 0 0 1-1.63 0.68z"/>
  <path d="m72.63 267.43a2.19 2.19 0 0 1-1.93 1h-17a2.2 2.2 0 0 1-1.62-0.67 2.32 2.32 0 0 1 0-3.22 2.18 2.18 0 0 1 1.62-0.68h13.52l-10.22-23.3-11.59 26.52a2.11 2.11 0 0 1-2.08 1.37 2.15 2.15 0 0 1-0.92-0.2 2.06 2.06 0 0 1-1.2-1.25 2.15 2.15 0 0 1 0-1.74l13.72-31.26a2.27 2.27 0 0 1 4.17 0l13.7 31.3a2.19 2.19 0 0 1-0.17 2.13z"/>
  <path d="m87.74 268.45a2.31 2.31 0 0 1-2.28-2.27v-31.32a2.28 2.28 0 0 1 4.15-1.3l12.48 17.57 12.49-17.57a2.07 2.07 0 0 1 2.55-0.87 2.1 2.1 0 0 1 1.6 2.17v31.32a2.13 2.13 0 0 1-0.67 1.6 2.23 2.23 0 0 1-1.63 0.67 2.29 2.29 0 0 1-2.27-2.27v-24.18l-10.16 14.41a2.22 2.22 0 0 1-1.87 0.95 2.15 2.15 0 0 1-1.85-0.95l-10.28-14.41v24.14a2.14 2.14 0 0 1-0.68 1.6 2.2 2.2 0 0 1-1.58 0.71z"/>
  <path d="m133.17 268.45a2.29 2.29 0 0 1-2.27-2.27v-31.32a2.19 2.19 0 0 1 0.67-1.6 2.13 2.13 0 0 1 1.6-0.67 2.23 2.23 0 0 1 1.63 0.67 2.19 2.19 0 0 1 0.67 1.6v31.32a2.13 2.13 0 0 1-0.67 1.6 2.23 2.23 0 0 1-1.63 0.67z"/>
  <path d="m167.87 235.79a2.22 2.22 0 0 1 0-1.75 2.06 2.06 0 0 1 1.2-1.25 2.26 2.26 0 0 1 1.75 0 2.2 2.2 0 0 1 1.25 1.22l11.59 26.5 4.25-9.75a2.12 2.12 0 0 1 2.13-1.38 2.19 2.19 0 0 1 2.07 1.35l4.55 9.93 11.63-26.66a2.27 2.27 0 0 1 3-1.17 2.3 2.3 0 0 1 1.18 3l-13.7 31.29a2.13 2.13 0 0 1-2.07 1.37 2.12 2.12 0 0 1-2.07-1.32l-4.63-9.99-4.3 9.9a2.11 2.11 0 0 1-2.1 1.37 2.09 2.09 0 0 1-2.07-1.37z"/>
  <path d="m244.3 267.43a2.17 2.17 0 0 1-1.93 1h-16.94a2.21 2.21 0 0 1-1.63-0.67 2.32 2.32 0 0 1 0-3.22 2.18 2.18 0 0 1 1.63-0.68h13.47l-10.22-23.32-11.6 26.52a2.1 2.1 0 0 1-2.08 1.37 2.15 2.15 0 0 1-0.92-0.2 2.11 2.11 0 0 1-1.2-1.25 2.15 2.15 0 0 1 0-1.74l13.72-31.24a2.28 2.28 0 0 1 4.18 0l13.69 31.3a2.15 2.15 0 0 1-0.17 2.13z"/>
  <path d="m259.41 268.45a2.29 2.29 0 0 1-2.27-2.27v-31.32a2.19 2.19 0 0 1 0.67-1.6 2.14 2.14 0 0 1 1.6-0.67 2.29 2.29 0 0 1 2.3 2.27v29h19.87a2.3 2.3 0 0 1 2.3 2.3 2.13 2.13 0 0 1-0.67 1.6 2.23 2.23 0 0 1-1.63 0.67z"/>
  <path d="m298.32 268.45a2.29 2.29 0 0 1-2.27-2.27v-31.32a2.19 2.19 0 0 1 0.67-1.6 2.13 2.13 0 0 1 1.6-0.67 2.29 2.29 0 0 1 2.3 2.27v29h19.87a2.2 2.2 0 0 1 1.63 0.68 2.23 2.23 0 0 1 0.67 1.62 2.17 2.17 0 0 1-0.67 1.6 2.23 2.23 0 0 1-1.63 0.67z"/>
  <path d="m358.75 232.59a2.29 2.29 0 1 1 0 4.57h-21.52a2.13 2.13 0 0 1-1.6-0.67 2.28 2.28 0 0 1 0-3.23 2.13 2.13 0 0 1 1.6-0.67zm0 15.64a2.3 2.3 0 0 1 2.3 2.3 2.22 2.22 0 0 1-0.67 1.6 2.25 2.25 0 0 1-1.63 0.68h-21.52a2.14 2.14 0 0 1-1.6-0.68 2.18 2.18 0 0 1-0.67-1.6 2.2 2.2 0 0 1 0.67-1.62 2.14 2.14 0 0 1 1.6-0.68zm2.3 18a2.17 2.17 0 0 1-0.67 1.6 2.24 2.24 0 0 1-1.63 0.67h-21.52a2.29 2.29 0 0 1-2.27-2.27 2.19 2.19 0 0 1 0.67-1.62 2.1 2.1 0 0 1 1.6-0.68h21.52a2.3 2.3 0 0 1 2.3 2.3z"/>
  <path d="m375.49 237.16a2.13 2.13 0 0 1-1.6-0.67 2.26 2.26 0 0 1 0-3.23 2.13 2.13 0 0 1 1.6-0.67h24.14a2.18 2.18 0 0 1 1.6 0.67 2.26 2.26 0 0 1 0 3.23 2.18 2.18 0 0 1-1.6 0.67h-9.8v29a2.18 2.18 0 0 1-0.64 1.6 2.23 2.23 0 0 1-1.63 0.67 2.2 2.2 0 0 1-1.62-0.67 2.15 2.15 0 0 1-0.65-1.6v-29z"/>
 </g>
</svg>
