<svg xmlns="http://www.w3.org/2000/svg" xmlns:xlink="http://www.w3.org/1999/xlink" viewBox="0 0 401.91 268.45"><defs><style>.cls-1{fill:url(#linear-gradient);}.cls-2{fill:url(#linear-gradient-2);}.cls-3{fill:url(#linear-gradient-3);}.cls-4{fill:url(#linear-gradient-4);}</style><linearGradient id="linear-gradient" x1="116.31" y1="108.43" x2="303.22" y2="108.43" gradientUnits="userSpaceOnUse"><stop offset="0.21" stop-color="#2ab7af"/><stop offset="0.8" stop-color="#df6c00"/></linearGradient><linearGradient id="linear-gradient-2" x1="99.05" y1="-2.84" x2="276.74" y2="211" xlink:href="#linear-gradient"/><linearGradient id="linear-gradient-3" x1="179.93" y1="-70.03" x2="357.61" y2="143.79" xlink:href="#linear-gradient"/><linearGradient id="linear-gradient-4" x1="39.13" y1="46.99" x2="216.81" y2="260.8" xlink:href="#linear-gradient"/></defs><title>Asset 3</title><g id="Layer_2" data-name="Layer 2"><g id="Layer_1-2" data-name="Layer 1"><path class="cls-1" d="M129.76,21.94l-4.95-5.08a10.07,10.07,0,0,1-8.5,9.17l5.07,4.72L303.22,200.27Zm12,49.13v101.2a10,10,0,0,1,13.52-.9v-67.9L264.85,210.3h18.88ZM269.39,47.69a10.05,10.05,0,0,1-7-2.81v68.49L154.83,6.55H134L275.92,145.48V45.27A10,10,0,0,1,269.39,47.69Z"/><path class="cls-2" d="M114.78,0a16.09,16.09,0,1,0,16.08,16.09A16.1,16.1,0,0,0,114.78,0Zm1.53,26a9.67,9.67,0,0,1-1.53.12,10.07,10.07,0,1,1,10.06-10.06c0,.26,0,.52,0,.77A10.07,10.07,0,0,1,116.31,26Z"/><path class="cls-3" d="M269.39,21.54a16.09,16.09,0,0,0,0,32.17,15.83,15.83,0,0,0,6.53-1.39,16.08,16.08,0,0,0-6.53-30.78Zm6.53,23.73a10.06,10.06,0,1,1,3.53-7.65A10,10,0,0,1,275.92,45.27Z"/><path class="cls-4" d="M155.3,164.42a16.09,16.09,0,1,0,9.82,14.82A16,16,0,0,0,155.3,164.42ZM149,189.3a10.06,10.06,0,1,1,10.07-10.06A10.07,10.07,0,0,1,149,189.3Z"/><path d="M2.27,268.45a2.14,2.14,0,0,1-1.6-.67,2.13,2.13,0,0,1-.67-1.6V234.86a2.09,2.09,0,0,1,1.55-2.15,2.1,2.1,0,0,1,2.55.78l20,26V234.86a2.29,2.29,0,0,1,4.57,0v31.32a2.08,2.08,0,0,1-1.55,2.15,2.18,2.18,0,0,1-.72.12,2.22,2.22,0,0,1-1.83-.9l-20-26v24.62a2.13,2.13,0,0,1-.67,1.6A2.21,2.21,0,0,1,2.27,268.45Z"/><path d="M72.63,267.43a2.19,2.19,0,0,1-1.93,1h-17a2.2,2.2,0,0,1-1.62-.67,2.32,2.32,0,0,1,0-3.22,2.18,2.18,0,0,1,1.62-.68H67.22L57,240.56,45.41,267.08a2.11,2.11,0,0,1-2.08,1.37,2.15,2.15,0,0,1-.92-.2,2.06,2.06,0,0,1-1.2-1.25,2.15,2.15,0,0,1,0-1.74L54.93,234a2.27,2.27,0,0,1,4.17,0l13.7,31.3A2.19,2.19,0,0,1,72.63,267.43Z"/><path d="M87.74,268.45a2.31,2.31,0,0,1-2.28-2.27V234.86a2.28,2.28,0,0,1,4.15-1.3l12.48,17.57,12.49-17.57a2.07,2.07,0,0,1,2.55-.87,2.1,2.1,0,0,1,1.6,2.17v31.32a2.13,2.13,0,0,1-.67,1.6,2.23,2.23,0,0,1-1.63.67,2.29,2.29,0,0,1-2.27-2.27V242L104,256.41a2.22,2.22,0,0,1-1.87.95,2.15,2.15,0,0,1-1.85-.95L90,242v24.14a2.14,2.14,0,0,1-.68,1.6A2.2,2.2,0,0,1,87.74,268.45Z"/><path d="M133.17,268.45a2.29,2.29,0,0,1-2.27-2.27V234.86a2.19,2.19,0,0,1,.67-1.6,2.13,2.13,0,0,1,1.6-.67,2.23,2.23,0,0,1,1.63.67,2.19,2.19,0,0,1,.67,1.6v31.32a2.13,2.13,0,0,1-.67,1.6A2.23,2.23,0,0,1,133.17,268.45Z"/><path d="M167.87,235.79a2.22,2.22,0,0,1,0-1.75,2.06,2.06,0,0,1,1.2-1.25,2.26,2.26,0,0,1,1.75,0,2.2,2.2,0,0,1,1.25,1.22l11.59,26.5,4.25-9.75a2.12,2.12,0,0,1,2.13-1.38,2.19,2.19,0,0,1,2.07,1.35l4.55,9.93L208.29,234a2.27,2.27,0,0,1,3-1.17,2.3,2.3,0,0,1,1.18,3l-13.7,31.29a2.13,2.13,0,0,1-2.07,1.37h0a2.12,2.12,0,0,1-2.07-1.32L190,257.18l-4.3,9.9a2.11,2.11,0,0,1-2.1,1.37,2.09,2.09,0,0,1-2.07-1.37Z"/><path d="M244.3,267.43a2.17,2.17,0,0,1-1.93,1H225.43a2.21,2.21,0,0,1-1.63-.67,2.32,2.32,0,0,1,0-3.22,2.18,2.18,0,0,1,1.63-.68H238.9l-10.22-23.32-11.6,26.52a2.1,2.1,0,0,1-2.08,1.37,2.15,2.15,0,0,1-.92-.2,2.11,2.11,0,0,1-1.2-1.25,2.15,2.15,0,0,1,0-1.74L226.6,234a2.28,2.28,0,0,1,4.18,0l13.69,31.3A2.15,2.15,0,0,1,244.3,267.43Z"/><path d="M259.41,268.45a2.29,2.29,0,0,1-2.27-2.27V234.86a2.19,2.19,0,0,1,.67-1.6,2.14,2.14,0,0,1,1.6-.67,2.29,2.29,0,0,1,2.3,2.27v29h19.87a2.3,2.3,0,0,1,2.3,2.3,2.13,2.13,0,0,1-.67,1.6,2.23,2.23,0,0,1-1.63.67Z"/><path d="M298.32,268.45a2.29,2.29,0,0,1-2.27-2.27V234.86a2.19,2.19,0,0,1,.67-1.6,2.13,2.13,0,0,1,1.6-.67,2.29,2.29,0,0,1,2.3,2.27v29h19.87a2.2,2.2,0,0,1,1.63.68,2.23,2.23,0,0,1,.67,1.62,2.17,2.17,0,0,1-.67,1.6,2.23,2.23,0,0,1-1.63.67Z"/><path d="M358.75,232.59a2.29,2.29,0,1,1,0,4.57H337.23a2.13,2.13,0,0,1-1.6-.67,2.28,2.28,0,0,1,0-3.23,2.13,2.13,0,0,1,1.6-.67Zm0,15.64a2.3,2.3,0,0,1,2.3,2.3,2.22,2.22,0,0,1-.67,1.6,2.25,2.25,0,0,1-1.63.68H337.23a2.14,2.14,0,0,1-1.6-.68,2.18,2.18,0,0,1-.67-1.6,2.2,2.2,0,0,1,.67-1.62,2.14,2.14,0,0,1,1.6-.68Zm2.3,18a2.17,2.17,0,0,1-.67,1.6,2.24,2.24,0,0,1-1.63.67H337.23a2.29,2.29,0,0,1-2.27-2.27,2.19,2.19,0,0,1,.67-1.62,2.1,2.1,0,0,1,1.6-.68h21.52a2.3,2.3,0,0,1,2.3,2.3Z"/><path d="M375.49,237.16a2.13,2.13,0,0,1-1.6-.67,2.26,2.26,0,0,1,0-3.23,2.13,2.13,0,0,1,1.6-.67h24.14a2.18,2.18,0,0,1,1.6.67,2.26,2.26,0,0,1,0,3.23,2.18,2.18,0,0,1-1.6.67h-9.8v29a2.18,2.18,0,0,1-.64,1.6,2.23,2.23,0,0,1-1.63.67,2.2,2.2,0,0,1-1.62-.67,2.15,2.15,0,0,1-.65-1.6v-29Z"/></g></g></svg>