<?xml version="1.0" encoding="UTF-8" standalone="no"?>
<!-- Generator: Adobe Illustrator 25.0.1, SVG Export Plug-In . SVG Version: 6.00 Build 0)  -->

<svg
   version="1.1"
   id="katman_1"
   x="0px"
   y="0px"
   viewBox="0 0 560 400"
   style="enable-background:new 0 0 560 400;"
   xml:space="preserve"
   sodipodi:docname="ledgerLogo.svg"
   inkscape:version="1.1 (c4e8f9e, 2021-05-24)"
   xmlns:inkscape="http://www.inkscape.org/namespaces/inkscape"
   xmlns:sodipodi="http://sodipodi.sourceforge.net/DTD/sodipodi-0.dtd"
   xmlns="http://www.w3.org/2000/svg"
   xmlns:svg="http://www.w3.org/2000/svg"><defs
   id="defs33" /><sodipodi:namedview
   id="namedview31"
   pagecolor="#ffffff"
   bordercolor="#666666"
   borderopacity="1.0"
   inkscape:pageshadow="2"
   inkscape:pageopacity="0.0"
   inkscape:pagecheckerboard="0"
   showgrid="false"
   inkscape:zoom="1.200367"
   inkscape:cx="286.57901"
   inkscape:cy="217.01695"
   inkscape:window-width="1296"
   inkscape:window-height="1003"
   inkscape:window-x="0"
   inkscape:window-y="25"
   inkscape:window-maximized="0"
   inkscape:current-layer="katman_1" />
<style
   type="text/css"
   id="style2">
	.st0{fill:#142533;}
</style>
<g
   transform="matrix(3.72324 0 0 3.72324 100 155.731)"
   id="g28"
   style="fill:#000000">
	<path
   class="st0"
   d="M10.02-2.51H-1.01v14.88h14.9V1.34c0-2.11-1.74-3.85-3.85-3.85C10.03-2.51,10.02-2.51,10.02-2.51z"
   id="path4"
   style="fill:#000000" />
	<path
   class="st0"
   d="M-4.45-2.51h-1.9c-2.11,0-3.85,1.74-3.85,3.85v1.9h5.75V-2.51z"
   id="path6"
   style="fill:#000000" />
	<path
   class="st0"
   d="M-10.21,6.68h5.75v5.75h-5.75V6.68z"
   id="path8"
   style="fill:#000000" />
	<path
   class="st0"
   d="M8.18,21.58h1.9c2.11,0,3.85-1.74,3.85-3.85c0,0,0-0.01,0-0.01v-1.84H8.18V21.58z"
   id="path10"
   style="fill:#000000" />
	<path
   class="st0"
   d="M-1.01,15.87h5.75v5.75h-5.75V15.87z"
   id="path12"
   style="fill:#000000" />
	<path
   class="st0"
   d="M-10.21,15.87v1.9c0,2.11,1.74,3.85,3.85,3.85h1.9v-5.75H-10.21z"
   id="path14"
   style="fill:#000000" />
	<path
   class="st0"
   d="M28.59-0.97h-2.25v21.06h11.93v-2.01h-9.68V-0.97z"
   id="path16"
   style="fill:#000000" />
	<path
   class="st0"
   d="M45.5,4.61c-4.38,0-7.47,3.26-7.47,7.94v0.53c0.15,4.09,3.54,7.39,7.64,7.41h0.29c2.05,0,4.04-0.74,5.6-2.07   v-0.06l-1.02-1.66l-0.11,0.06c-1.21,1.13-2.8,1.76-4.46,1.78c-0.04,0-0.08,0-0.12,0c-3.06,0-5.57-2.51-5.57-5.57   c0-0.06,0-0.12,0-0.18h11.38v-0.12v-1.07C51.78,7.34,49.3,4.61,45.5,4.61L45.5,4.61z M40.41,10.9c0.3-2.5,2.45-4.41,4.98-4.4   c1.9,0,3.98,1.14,4.15,4.4H40.41z"
   id="path18"
   style="fill:#000000" />
	<path
   class="st0"
   d="M64.88,6.39v0.79c-0.96-1.6-2.7-2.59-4.57-2.6h-0.28c-4.03,0-6.82,3.2-6.82,7.88s2.66,7.96,6.64,7.96   c2.06,0.1,4.01-0.96,5.05-2.74v2.31h2.13V-0.97h-2.16V6.39z M60.26,18.43c-2.79,0-4.63-2.42-4.63-5.93s1.95-5.87,4.69-5.87   c2.26,0,4.57,1.84,4.57,5.87c0,4.37-2.42,5.93-4.67,5.93H60.26z"
   id="path20"
   style="fill:#000000" />
	<path
   class="st0"
   d="M80.08,6.68V6.8c-0.42-0.71-1.72-2.25-4.84-2.25c-3.97,0-6.59,3.03-6.59,7.65s2.74,7.76,6.77,7.76   c1.89,0.14,3.71-0.8,4.69-2.42v2.08c0,2.91-1.84,4.57-5.11,4.57c-1.41,0.01-2.8-0.32-4.06-0.96l-0.11-0.06l-0.84,1.84l0.12,0.06   c1.52,0.77,3.21,1.19,4.92,1.21c3.5,0,7.27-1.78,7.27-6.71V5.05h-2.22L80.08,6.68z M75.69,18.08c-2.91,0-4.84-2.25-4.84-5.75   s1.66-5.58,4.51-5.58c3.14,0,4.63,1.84,4.63,5.58S78.53,18.08,75.69,18.08z"
   id="path22"
   style="fill:#000000" />
	<path
   class="st0"
   d="M91.24,4.61c-4.4,0-7.42,3.26-7.42,7.88v0.53c0.13,4.14,3.57,7.47,7.71,7.47h0.3   c2.04-0.01,4.02-0.75,5.57-2.08l-1.03-1.77h-0.12c-1.21,1.13-2.79,1.76-4.44,1.78c-0.04,0-0.08,0-0.12,0   c-3.06,0-5.58-2.52-5.58-5.58c0-0.06,0-0.11,0-0.17h11.48v-0.12v-1.07C97.58,7.34,95.09,4.61,91.24,4.61L91.24,4.61z M86.19,10.9   c0.31-2.51,2.46-4.41,4.99-4.4c1.89,0,3.97,1.14,4.14,4.4H86.19z"
   id="path24"
   style="fill:#000000" />
	<path
   class="st0"
   d="M106.84,4.9c-0.3,0-0.53,0-0.84-0.12c-2.14,0.06-4.02,1.47-4.69,3.5V4.9h-2.19v15.13h2.25v-6.35   c0.01-0.97,0.17-1.94,0.47-2.87c0.71-2.31,2.31-3.79,4.21-3.79c0.24-0.02,0.48-0.02,0.71,0h0.12V4.9L106.84,4.9z"
   id="path26"
   style="fill:#000000" />
</g>
</svg>
