<?xml version="1.0" encoding="UTF-8" standalone="no"?>
<svg
   xmlns:dc="http://purl.org/dc/elements/1.1/"
   xmlns:cc="http://creativecommons.org/ns#"
   xmlns:rdf="http://www.w3.org/1999/02/22-rdf-syntax-ns#"
   xmlns:svg="http://www.w3.org/2000/svg"
   xmlns="http://www.w3.org/2000/svg"
   xmlns:xlink="http://www.w3.org/1999/xlink"
   xmlns:sodipodi="http://sodipodi.sourceforge.net/DTD/sodipodi-0.dtd"
   xmlns:inkscape="http://www.inkscape.org/namespaces/inkscape"
   viewBox="0 0 204.53999 210.29999"
   version="1.1"
   id="svg46"
   sodipodi:docname="logo.svg"
   width="204.53999"
   height="210.3"
   inkscape:version="1.0.2 (1.0.2+r75+1)">
  <metadata
     id="metadata50">
    <rdf:RDF>
      <cc:Work
         rdf:about="">
        <dc:format>image/svg+xml</dc:format>
        <dc:type
           rdf:resource="http://purl.org/dc/dcmitype/StillImage" />
        <dc:title>Asset 3</dc:title>
      </cc:Work>
    </rdf:RDF>
  </metadata>
  <sodipodi:namedview
     pagecolor="#ffffff"
     bordercolor="#666666"
     borderopacity="1"
     objecttolerance="10"
     gridtolerance="10"
     guidetolerance="10"
     inkscape:pageopacity="0"
     inkscape:pageshadow="2"
     inkscape:window-width="1920"
     inkscape:window-height="1043"
     id="namedview48"
     showgrid="false"
     inkscape:zoom="1.2309663"
     inkscape:cx="45.878021"
     inkscape:cy="213.34722"
     inkscape:window-x="1920"
     inkscape:window-y="0"
     inkscape:window-maximized="1"
     inkscape:current-layer="svg46" />
  <defs
     id="defs12">
    <style
       id="style2">.cls-1{fill:url(#linear-gradient);}.cls-2{fill:url(#linear-gradient-2);}.cls-3{fill:url(#linear-gradient-3);}.cls-4{fill:url(#linear-gradient-4);}</style>
    <linearGradient
       id="linear-gradient"
       x1="116.31"
       y1="108.43"
       x2="303.22"
       y2="108.43"
       gradientUnits="userSpaceOnUse">
      <stop
         offset="0.21"
         stop-color="#2ab7af"
         id="stop4" />
      <stop
         offset="0.8"
         stop-color="#df6c00"
         id="stop6" />
    </linearGradient>
    <linearGradient
       id="linear-gradient-2"
       x1="99.050003"
       y1="-2.8399999"
       x2="276.73999"
       y2="211"
       xlink:href="#linear-gradient"
       gradientTransform="translate(-8.6885504,41.010873)" />
    <linearGradient
       id="linear-gradient-3"
       x1="179.92999"
       y1="-70.029999"
       x2="357.60999"
       y2="143.78999"
       xlink:href="#linear-gradient"
       gradientTransform="translate(-8.6885504,41.010873)" />
    <linearGradient
       id="linear-gradient-4"
       x1="39.130001"
       y1="46.990002"
       x2="216.81"
       y2="260.79999"
       xlink:href="#linear-gradient"
       gradientTransform="translate(-8.6885504,41.010873)" />
  </defs>
  <title
     id="title14">Asset 3</title>
  <g
     id="g910"
     style="fill:#ffffff;fill-opacity:1"
     transform="translate(-89.99145,-41.01087)">
    <path
       class="cls-1"
       d="m 121.07145,62.950873 -4.95,-5.08 a 10.07,10.07 0 0 1 -8.5,9.17 l 5.07,4.72 181.84,169.519997 z m 12,49.129997 v 101.2 a 10,10 0 0 1 13.52,-0.9 v -67.9 l 109.57,106.83 h 18.88 z m 127.63,-23.379997 a 10.05,10.05 0 0 1 -7,-2.81 v 68.489997 l -107.56,-106.819997 h -20.83 l 141.92,138.929997 V 86.280873 a 10,10 0 0 1 -6.53,2.42 z"
       id="path16"
       style="fill:#ffffff;fill-opacity:1" />
    <path
       class="cls-2"
       d="m 106.09145,41.010873 a 16.09,16.09 0 1 0 16.08,16.09 16.1,16.1 0 0 0 -16.08,-16.09 z m 1.53,26 a 9.67,9.67 0 0 1 -1.53,0.12 10.07,10.07 0 1 1 10.06,-10.06 c 0,0.26 0,0.52 0,0.77 a 10.07,10.07 0 0 1 -8.53,9.17 z"
       id="path18"
       style="fill:#ffffff;fill-opacity:1" />
    <path
       class="cls-3"
       d="m 260.70145,62.550873 a 16.09,16.09 0 0 0 0,32.17 15.83,15.83 0 0 0 6.53,-1.39 16.08,16.08 0 0 0 -6.53,-30.78 z m 6.53,23.73 a 10.06,10.06 0 1 1 3.53,-7.65 10,10 0 0 1 -3.53,7.65 z"
       id="path20"
       style="fill:#ffffff;fill-opacity:1" />
    <path
       class="cls-4"
       d="m 146.61145,205.43087 a 16.09,16.09 0 1 0 9.82,14.82 16,16 0 0 0 -9.82,-14.82 z m -6.3,24.88 a 10.06,10.06 0 1 1 10.07,-10.06 10.07,10.07 0 0 1 -10.07,10.06 z"
       id="path22"
       style="fill:#ffffff;fill-opacity:1" />
  </g>
  <path
     d="m -96.41,268.45 a 2.14,2.14 0 0 1 -1.6,-0.67 2.13,2.13 0 0 1 -0.67,-1.6 v -31.32 a 2.09,2.09 0 0 1 1.55,-2.15 2.1,2.1 0 0 1 2.55,0.78 l 20,26 v -24.63 a 2.29,2.29 0 0 1 4.57,0 v 31.32 a 2.08,2.08 0 0 1 -1.55,2.15 2.18,2.18 0 0 1 -0.72,0.12 2.22,2.22 0 0 1 -1.83,-0.9 l -20,-26 v 24.62 a 2.13,2.13 0 0 1 -0.67,1.6 2.21,2.21 0 0 1 -1.63,0.68 z"
     id="path24" />
  <path
     d="m -26.05,267.43 a 2.19,2.19 0 0 1 -1.93,1 h -17 a 2.2,2.2 0 0 1 -1.62,-0.67 2.32,2.32 0 0 1 0,-3.22 2.18,2.18 0 0 1 1.62,-0.68 h 13.52 l -10.22,-23.3 -11.59,26.52 a 2.11,2.11 0 0 1 -2.08,1.37 2.15,2.15 0 0 1 -0.92,-0.2 2.06,2.06 0 0 1 -1.2,-1.25 2.15,2.15 0 0 1 0,-1.74 L -43.75,234 a 2.27,2.27 0 0 1 4.17,0 l 13.7,31.3 a 2.19,2.19 0 0 1 -0.17,2.13 z"
     id="path26" />
  <path
     d="m -10.94,268.45 a 2.31,2.31 0 0 1 -2.28,-2.27 v -31.32 a 2.28,2.28 0 0 1 4.15,-1.3 L 3.41,251.13 15.9,233.56 a 2.07,2.07 0 0 1 2.55,-0.87 2.1,2.1 0 0 1 1.6,2.17 v 31.32 a 2.13,2.13 0 0 1 -0.67,1.6 2.23,2.23 0 0 1 -1.63,0.67 2.29,2.29 0 0 1 -2.27,-2.27 V 242 L 5.32,256.41 A 2.22,2.22 0 0 1 3.45,257.36 2.15,2.15 0 0 1 1.6,256.41 L -8.68,242 v 24.14 a 2.14,2.14 0 0 1 -0.68,1.6 2.2,2.2 0 0 1 -1.58,0.71 z"
     id="path28" />
  <path
     d="m 34.49,268.45 a 2.29,2.29 0 0 1 -2.27,-2.27 v -31.32 a 2.19,2.19 0 0 1 0.67,-1.6 2.13,2.13 0 0 1 1.6,-0.67 2.23,2.23 0 0 1 1.63,0.67 2.19,2.19 0 0 1 0.67,1.6 v 31.32 a 2.13,2.13 0 0 1 -0.67,1.6 2.23,2.23 0 0 1 -1.63,0.67 z"
     id="path30" />
  <path
     d="m 69.19,235.79 a 2.22,2.22 0 0 1 0,-1.75 2.06,2.06 0 0 1 1.2,-1.25 2.26,2.26 0 0 1 1.75,0 2.2,2.2 0 0 1 1.25,1.22 l 11.59,26.5 4.25,-9.75 a 2.12,2.12 0 0 1 2.13,-1.38 2.19,2.19 0 0 1 2.07,1.35 l 4.55,9.93 11.63,-26.66 a 2.27,2.27 0 0 1 3,-1.17 2.3,2.3 0 0 1 1.18,3 l -13.7,31.29 a 2.13,2.13 0 0 1 -2.07,1.37 v 0 a 2.12,2.12 0 0 1 -2.07,-1.32 l -4.63,-9.99 -4.3,9.9 a 2.11,2.11 0 0 1 -2.1,1.37 2.09,2.09 0 0 1 -2.07,-1.37 z"
     id="path32" />
  <path
     d="m 145.62,267.43 a 2.17,2.17 0 0 1 -1.93,1 h -16.94 a 2.21,2.21 0 0 1 -1.63,-0.67 2.32,2.32 0 0 1 0,-3.22 2.18,2.18 0 0 1 1.63,-0.68 h 13.47 L 130,240.54 118.4,267.06 a 2.1,2.1 0 0 1 -2.08,1.37 2.15,2.15 0 0 1 -0.92,-0.2 2.11,2.11 0 0 1 -1.2,-1.25 2.15,2.15 0 0 1 0,-1.74 L 127.92,234 a 2.28,2.28 0 0 1 4.18,0 l 13.69,31.3 a 2.15,2.15 0 0 1 -0.17,2.13 z"
     id="path34" />
  <path
     d="m 160.73,268.45 a 2.29,2.29 0 0 1 -2.27,-2.27 v -31.32 a 2.19,2.19 0 0 1 0.67,-1.6 2.14,2.14 0 0 1 1.6,-0.67 2.29,2.29 0 0 1 2.3,2.27 v 29 h 19.87 a 2.3,2.3 0 0 1 2.3,2.3 2.13,2.13 0 0 1 -0.67,1.6 2.23,2.23 0 0 1 -1.63,0.67 z"
     id="path36" />
  <path
     d="m 199.64,268.45 a 2.29,2.29 0 0 1 -2.27,-2.27 v -31.32 a 2.19,2.19 0 0 1 0.67,-1.6 2.13,2.13 0 0 1 1.6,-0.67 2.29,2.29 0 0 1 2.3,2.27 v 29 h 19.87 a 2.2,2.2 0 0 1 1.63,0.68 2.23,2.23 0 0 1 0.67,1.62 2.17,2.17 0 0 1 -0.67,1.6 2.23,2.23 0 0 1 -1.63,0.67 z"
     id="path38" />
  <path
     d="m 260.07,232.59 a 2.29,2.29 0 1 1 0,4.57 h -21.52 a 2.13,2.13 0 0 1 -1.6,-0.67 2.28,2.28 0 0 1 0,-3.23 2.13,2.13 0 0 1 1.6,-0.67 z m 0,15.64 a 2.3,2.3 0 0 1 2.3,2.3 2.22,2.22 0 0 1 -0.67,1.6 2.25,2.25 0 0 1 -1.63,0.68 h -21.52 a 2.14,2.14 0 0 1 -1.6,-0.68 2.18,2.18 0 0 1 -0.67,-1.6 2.2,2.2 0 0 1 0.67,-1.62 2.14,2.14 0 0 1 1.6,-0.68 z m 2.3,18 a 2.17,2.17 0 0 1 -0.67,1.6 2.24,2.24 0 0 1 -1.63,0.67 h -21.52 a 2.29,2.29 0 0 1 -2.27,-2.27 2.19,2.19 0 0 1 0.67,-1.62 2.1,2.1 0 0 1 1.6,-0.68 h 21.52 a 2.3,2.3 0 0 1 2.3,2.3 z"
     id="path40" />
  <path
     d="m 276.81,237.16 a 2.13,2.13 0 0 1 -1.6,-0.67 2.26,2.26 0 0 1 0,-3.23 2.13,2.13 0 0 1 1.6,-0.67 h 24.14 a 2.18,2.18 0 0 1 1.6,0.67 2.26,2.26 0 0 1 0,3.23 2.18,2.18 0 0 1 -1.6,0.67 h -9.8 v 29 a 2.18,2.18 0 0 1 -0.64,1.6 2.23,2.23 0 0 1 -1.63,0.67 2.2,2.2 0 0 1 -1.62,-0.67 2.15,2.15 0 0 1 -0.65,-1.6 v -29 z"
     id="path42" />
</svg>
