<svg width="219" height="102" viewBox="0 0 219 102" fill="none" xmlns="http://www.w3.org/2000/svg">
<circle cx="30" cy="52" r="28.5" fill="white" stroke="#549CA1" stroke-width="3"/>
<g clip-path="url(#clip0_5731_15055)">
<path d="M18.1906 37.6639L17.3643 36.8151C17.335 37.1932 17.1788 37.5502 16.921 37.8282C16.6632 38.1063 16.3191 38.289 15.9443 38.3468L16.7945 39.1351L47.1591 67.4439L18.1906 37.6639ZM20.1951 45.8689V62.7694C20.4838 62.4655 20.8763 62.2814 21.2945 62.2535C21.7127 62.2257 22.1261 62.3562 22.4526 62.6191V51.2797L40.7534 69.1203H43.906L20.1951 45.8689ZM41.5094 41.9638C41.0735 41.9655 40.654 41.7971 40.3403 41.4945V52.9329L22.3774 35.0938H18.9023L42.5998 58.2952V41.5598C42.2967 41.8211 41.9096 41.9645 41.5094 41.9638Z" fill="#349EA3"/>
<path d="M15.6886 34C15.157 33.9996 14.6373 34.1568 14.1951 34.4518C13.7529 34.7468 13.4081 35.1663 13.2043 35.6572C13.0006 36.1482 12.947 36.6885 13.0503 37.21C13.1536 37.7314 13.4093 38.2104 13.7849 38.5866C14.1605 38.9627 14.6393 39.219 15.1606 39.323C15.6818 39.427 16.2223 39.3741 16.7135 39.171C17.2047 38.9678 17.6247 38.6236 17.9202 38.1818C18.2158 37.74 18.3737 37.2204 18.374 36.6889C18.3738 35.9764 18.0909 35.2931 17.5874 34.789C17.084 34.2849 16.4011 34.0011 15.6886 34ZM15.9436 38.3421C15.8593 38.3557 15.774 38.3623 15.6886 38.3618C15.3559 38.3622 15.0305 38.2639 14.7536 38.0794C14.4767 37.8948 14.2608 37.6323 14.1332 37.3251C14.0055 37.0178 13.9719 36.6795 14.0365 36.3531C14.1011 36.0267 14.261 35.7268 14.4961 35.4914C14.7312 35.2559 15.0308 35.0954 15.3571 35.0303C15.6834 34.9651 16.0217 34.9982 16.3292 35.1253C16.6367 35.2525 16.8996 35.468 17.0846 35.7445C17.2696 36.0211 17.3684 36.3463 17.3685 36.679V36.8104C17.3389 37.1891 17.1819 37.5466 16.9232 37.8247C16.6645 38.1028 16.3192 38.2852 15.9436 38.3421Z" fill="#349EA3"/>
<path d="M41.5091 37.5977C40.8074 37.6137 40.1398 37.9038 39.6491 38.4057C39.1585 38.9077 38.8838 39.5818 38.8838 40.2837C38.8838 40.9857 39.1585 41.6597 39.6491 42.1617C40.1398 42.6637 40.8074 42.9537 41.5091 42.9698C41.885 42.971 42.2567 42.892 42.5996 42.7379C43.1625 42.4884 43.6226 42.0529 43.9026 41.5045C44.1827 40.9561 44.2659 40.3281 44.1381 39.7258C44.0103 39.1234 43.6794 38.5832 43.2007 38.1958C42.7221 37.8084 42.1249 37.5972 41.5091 37.5977ZM42.5996 41.5604C42.3082 41.809 41.9407 41.9505 41.5578 41.9617C41.175 41.9728 40.7999 41.8527 40.4946 41.6214C40.1893 41.3902 39.9723 41.0615 39.8794 40.6899C39.7865 40.3184 39.8233 39.9262 39.9838 39.5785C40.1443 39.2307 40.4188 38.9483 40.7618 38.7779C41.1048 38.6075 41.4957 38.5594 41.8698 38.6417C42.2438 38.7239 42.5786 38.9315 42.8185 39.23C43.0584 39.5285 43.1892 39.9 43.1891 40.283C43.189 40.5259 43.1362 40.7658 43.0345 40.9864C42.9327 41.2069 42.7843 41.4027 42.5996 41.5604Z" fill="#349EA3"/>
<path d="M22.4548 61.4587C21.9229 61.2335 21.3327 61.1857 20.7715 61.3224C20.2104 61.459 19.7081 61.7727 19.3393 62.2171C18.9704 62.6615 18.7545 63.2129 18.7236 63.7897C18.6927 64.3664 18.8483 64.9377 19.1676 65.419C19.4868 65.9003 19.9526 66.266 20.4959 66.4618C21.0392 66.6577 21.6312 66.6733 22.1841 66.5063C22.737 66.3393 23.2214 65.9987 23.5655 65.5349C23.9096 65.071 24.0952 64.5087 24.0947 63.9312C24.0947 63.4032 23.9392 62.8869 23.6475 62.4468C23.3559 62.0067 22.941 61.6623 22.4548 61.4566V61.4587ZM21.4009 65.6132C21.0689 65.6125 20.7445 65.5134 20.4687 65.3285C20.193 65.1436 19.9782 64.8811 19.8515 64.5742C19.7249 64.2673 19.692 63.9297 19.757 63.6041C19.8221 63.2786 19.9821 62.9796 20.217 62.7449C20.4519 62.5102 20.751 62.3504 21.0766 62.2856C21.4023 62.2208 21.7398 62.254 22.0466 62.3809C22.3534 62.5079 22.6157 62.7229 22.8004 62.9988C22.9851 63.2747 23.0839 63.5991 23.0843 63.9312C23.0844 64.152 23.041 64.3706 22.9564 64.5746C22.8719 64.7786 22.748 64.964 22.5917 65.12C22.4355 65.276 22.25 65.3997 22.0459 65.484C21.8418 65.5683 21.6231 65.6115 21.4023 65.6111L21.4009 65.6132Z" fill="#349EA3"/>
</g>
<path d="M149.044 64.916H151.683V81.528H149.044V64.916Z" fill="white"/>
<path d="M166.572 69.8038V81.5273H164.211L164.187 79.9619C163.291 81.1012 161.734 81.7893 159.941 81.7893C156.519 81.7893 154.16 79.2712 154.16 75.6642C154.16 72.0572 156.519 69.5391 159.941 69.5391C161.758 69.5391 163.291 70.2271 164.187 71.3664L164.211 69.8011L166.572 69.8038ZM163.93 75.6655C163.93 73.4823 162.467 71.9632 160.367 71.9632C158.267 71.9632 156.805 73.4823 156.805 75.6655C156.805 77.8488 158.268 79.3671 160.367 79.3671C162.467 79.3671 163.93 77.8488 163.93 75.6655V75.6655Z" fill="white"/>
<path d="M168.754 75.6661C168.754 72.0353 171.257 69.541 174.959 69.541C176.657 69.541 178.12 70.1338 179.37 71.3438L177.767 73.0766C177.059 72.3647 176.044 71.9611 175.006 71.9611C172.883 71.9611 171.396 73.4801 171.396 75.6634C171.396 77.8705 172.859 79.365 175.006 79.365C176.138 79.365 177.177 78.9376 177.885 78.1549L179.512 79.9346C178.215 81.1923 176.776 81.7858 174.979 81.7858C171.208 81.7885 168.754 79.3677 168.754 75.6661Z" fill="white"/>
<path d="M192.899 76.662H183.581C183.793 78.3709 185.205 79.4625 187.261 79.4625C188.582 79.4625 189.9 78.9861 190.611 78.2518L192.216 79.8171C191.059 81.0748 189.195 81.8588 187.19 81.8588C183.344 81.8588 180.867 79.4142 180.867 75.6656C180.867 72.0348 183.297 69.5664 186.907 69.5664C191.012 69.5664 193.277 72.2723 192.899 76.662ZM183.603 74.5972H190.375C190.187 72.9366 188.913 71.8681 186.978 71.8681C185.137 71.8681 183.934 72.8651 183.604 74.5972H183.603Z" fill="white"/>
<path d="M156.431 34.3742C156.211 34.9376 156.021 35.5124 155.862 36.0961C155.16 38.6707 155.04 41.3709 155.512 43.9981C155.535 44.1288 155.56 44.2602 155.587 44.3895C155.687 44.8863 155.811 45.3831 155.953 45.869C156.113 46.4135 156.303 46.9579 156.519 47.4867C157.972 51.0761 160.557 54.0859 163.877 56.053C164.655 56.515 165.468 56.9144 166.309 57.2474C169.472 58.5053 172.928 58.8164 176.263 58.143C179.597 57.4697 182.666 55.8408 185.101 53.4526C186.633 51.9507 187.875 50.1774 188.767 48.2217C188.615 48.3833 188.459 48.5421 188.3 48.6981C185.724 51.2421 182.478 52.9924 178.946 53.7425C178.786 53.8214 178.624 53.8943 178.46 53.9664C175.963 55.0544 173.208 55.3996 170.522 54.9612C167.836 54.5227 165.331 53.319 163.305 51.4925C163.074 51.2847 162.848 51.0679 162.628 50.8419L162.529 50.7378C160.537 48.6555 159.221 46.0126 158.758 43.1604C158.716 42.9052 158.681 42.6465 158.652 42.3886C158.596 41.8744 158.568 41.3575 158.568 40.8403C158.557 38.0264 159.374 35.2722 160.916 32.9246C161.304 32.3312 161.737 31.7683 162.21 31.2409C162.409 31.0184 162.616 30.7965 162.836 30.5835C165.446 28.0023 168.948 26.5375 172.608 26.496C172.666 26.496 172.731 26.496 172.796 26.496H172.947C173.542 26.5004 174.135 26.5432 174.724 26.6239C177.205 26.9569 179.552 27.9484 181.525 29.4966C181.441 29.1815 181.345 28.8671 181.236 28.5574C181.15 28.3124 181.059 28.0729 180.957 27.836C180.393 26.4802 179.601 25.2325 178.615 24.148L178.559 24.1045C177.731 23.8157 176.882 23.5914 176.02 23.4335C172.73 22.8214 169.336 23.161 166.231 24.4128C165.757 24.604 165.296 24.8143 164.86 25.0382C163.898 25.5283 162.983 26.1072 162.128 26.7676L162.051 26.8254C161.51 27.2498 160.992 27.7043 160.501 28.1865C159.406 29.2651 158.456 30.4835 157.675 31.8105C157.228 32.5701 156.839 33.363 156.512 34.1823L156.503 34.3756L156.431 34.3742ZM167.045 20.9467C165.986 20.9472 164.929 21.0451 163.888 21.2393C163.752 21.2624 163.617 21.2876 163.486 21.3183C162.999 21.4183 162.509 21.5422 162.023 21.6898C161.74 21.7729 161.458 21.8654 161.179 21.9621C160.899 22.0587 160.642 22.1594 160.377 22.2676C156.799 23.718 153.804 26.3267 151.865 29.6811C151.618 30.103 151.384 30.5474 151.167 31.0014C150.996 31.3621 150.835 31.7296 150.689 32.0971C149.041 36.2613 149.026 40.8997 150.648 45.0744C152.27 49.2491 155.408 52.6485 159.426 54.585C159.507 54.6245 159.589 54.6626 159.67 54.7C159.507 54.5449 159.348 54.3861 159.19 54.2237C156.659 51.6281 154.919 48.3592 154.173 44.8019C154.106 44.6814 154.022 44.4977 153.942 44.3078C153.813 44.0118 153.697 43.7075 153.588 43.3979C152.965 41.6238 152.696 39.7435 152.797 37.8647C152.898 35.986 153.367 34.1458 154.177 32.4496C154.452 31.8718 154.764 31.3126 155.111 30.7754C155.501 30.1739 155.937 29.6033 156.414 29.0685C156.653 28.7963 156.9 28.5404 157.158 28.292C157.642 27.8233 158.159 27.3911 158.705 26.9989C159.543 26.3969 160.443 25.888 161.39 25.4813C163.607 23.7836 166.176 22.6118 168.907 22.0533C169.919 21.8415 170.947 21.7133 171.981 21.6701L171.746 21.602C170.218 21.1673 168.637 20.9467 167.048 20.9467H167.045ZM170.033 51.9723C170.108 51.9948 170.183 52.0159 170.259 52.0363C172.817 52.7465 175.501 52.8696 178.112 52.3963L178.18 52.3827C178.296 52.3616 178.414 52.3405 178.53 52.3147C179.01 52.2173 179.484 52.0969 179.988 51.9458C180.492 51.7947 180.992 51.6239 181.5 51.4211L181.671 51.6552L181.567 51.3932C183.693 50.5314 185.629 49.256 187.265 47.6399C188.362 46.5597 189.314 45.34 190.096 44.0118C190.549 43.2397 190.942 42.4335 191.272 41.6005C192.543 38.4144 192.866 34.925 192.2 31.5576C191.535 28.1903 189.91 25.0904 187.523 22.6358V22.6358C186.035 21.1022 184.279 19.8566 182.344 18.9608C184.512 21.0435 186.159 23.6128 187.151 26.4586C187.428 27.2503 187.654 28.0591 187.828 28.88C187.891 28.9957 187.973 29.1774 188.05 29.3564C188.5 30.4155 188.822 31.5254 189.007 32.6619C189.136 33.4377 189.203 34.2227 189.205 35.0092C189.212 37.8158 188.395 40.5619 186.857 42.9038C186.47 43.4978 186.037 44.0605 185.563 44.5868C185.364 44.8101 185.157 45.0319 184.937 45.2449L184.836 45.3409C183.605 46.5355 182.168 47.4951 180.595 48.1727C179.053 49.3378 177.341 50.2561 175.52 50.895C173.756 51.5219 171.909 51.8851 170.04 51.973L170.033 51.9723ZM163.403 49.5223C164.233 49.8173 165.085 50.0462 165.951 50.207C168.193 50.6343 170.497 50.6125 172.732 50.143C173.509 49.9799 174.276 49.7652 175.025 49.5005C175.289 49.408 175.55 49.3072 175.805 49.2024C176.254 49.0207 176.691 48.8206 177.107 48.6083C180.124 47.0863 182.637 44.7162 184.341 41.7856C184.585 41.3698 184.82 40.9254 185.039 40.4619C185.204 40.1182 185.354 39.7698 185.495 39.4193L185.515 39.3648C185.751 38.7791 185.954 38.1807 186.124 37.5722C186.85 35.0029 186.974 32.2993 186.487 29.6736V29.6654C186.467 29.5381 186.441 29.4129 186.414 29.2884C186.318 28.8018 186.192 28.3036 186.043 27.8C185.959 27.5148 185.869 27.2317 185.772 26.9486C185.681 26.6893 185.585 26.4334 185.482 26.1823C184.051 22.5848 181.471 19.5682 178.148 17.6071C177.701 17.341 177.242 17.0953 176.784 16.8769C176.446 16.7142 176.108 16.5618 175.761 16.4236C171.617 14.7441 166.992 14.715 162.826 16.3424C158.661 17.9697 155.268 21.1313 153.337 25.1846C153.301 25.2608 153.265 25.3363 153.23 25.4125C155.303 23.2273 157.86 21.5668 160.694 20.5669C161.475 20.2906 162.273 20.0633 163.082 19.8863C163.251 19.7963 163.425 19.7152 163.602 19.6434C163.881 19.5236 164.168 19.412 164.459 19.3079C165.253 19.0278 166.07 18.8171 166.9 18.6783C170.435 18.1022 174.056 18.8839 177.045 20.8684C177.631 21.2535 178.187 21.684 178.707 22.156C178.966 22.3867 179.218 22.6277 179.46 22.8822C180.647 24.1227 181.6 25.57 182.273 27.1534C182.399 27.4515 182.516 27.7523 182.624 28.0613C182.902 28.8535 183.111 29.6688 183.248 30.4977C183.293 30.755 183.327 31.017 183.356 31.279C183.412 31.7937 183.441 32.311 183.441 32.8287C183.441 34.9689 182.961 37.0815 182.036 39.0089C181.762 39.5865 181.45 40.1445 181.1 40.679C179.819 42.6396 178.08 44.2545 176.035 45.3826C173.989 46.5106 171.7 47.1174 169.368 47.1498C168.665 47.1597 167.961 47.1158 167.265 47.0185C165.798 46.8151 164.372 46.3834 163.038 45.739C162.131 45.3021 161.272 44.7714 160.474 44.1554C161.006 46.1562 162.013 47.997 163.409 49.5189L163.403 49.5223ZM160.072 41.8319C161.112 42.8969 162.329 43.7702 163.669 44.4119C163.967 44.5558 164.269 44.6873 164.576 44.8067C162.43 42.5072 161.104 39.557 160.804 36.418C160.181 38.1488 159.934 39.9936 160.078 41.8285L160.072 41.8319ZM177.406 28.8331C179.542 31.1306 180.873 34.0677 181.195 37.1966C181.817 35.482 182.066 33.6533 181.926 31.8337L181.921 31.8289C180.648 30.518 179.11 29.4963 177.412 28.8324L177.406 28.8331Z" fill="url(#paint0_radial_5731_15055)"/>
<path d="M103.159 43.4199L110.742 51.0033M110.742 51.0033L103.159 58.5866M110.742 51.0033L91.2422 51.0033" stroke="url(#paint1_linear_5731_15055)" stroke-width="3.18628" stroke-linecap="round" stroke-linejoin="round"/>
<circle cx="67.9922" cy="92.002" r="10" fill="#E84D66"/>
<path d="M64.9922 95.002L70.9922 89.002M64.9922 89.002L70.9922 95.002" stroke="white" stroke-linecap="round" stroke-linejoin="round"/>
<circle cx="208.992" cy="92.002" r="10" fill="#2CB67D"/>
<path d="M205.492 92.502L207.492 94.502L212.492 89.502" stroke="white" stroke-linecap="round" stroke-linejoin="round"/>
<defs>
<radialGradient id="paint0_radial_5731_15055" cx="0" cy="0" r="1" gradientUnits="userSpaceOnUse" gradientTransform="translate(170.993 36.8148) scale(21.5496 21.6761)">
<stop stop-color="#FDC300"/>
<stop offset="0.11" stop-color="#FDC205"/>
<stop offset="0.25" stop-color="#FDBF13"/>
<stop offset="0.39" stop-color="#FDB92B"/>
<stop offset="0.54" stop-color="#FEB24C"/>
<stop offset="0.7" stop-color="#FEA977"/>
<stop offset="0.86" stop-color="#FF9DAA"/>
<stop offset="1" stop-color="#FF92DE"/>
</radialGradient>
<linearGradient id="paint1_linear_5731_15055" x1="87.6741" y1="40.6447" x2="116.143" y2="43.3445" gradientUnits="userSpaceOnUse">
<stop stop-color="#FF92DE"/>
<stop offset="1" stop-color="#FDC300"/>
</linearGradient>
<clipPath id="clip0_5731_15055">
<rect width="34.1586" height="35.1205" fill="white" transform="translate(13 34)"/>
</clipPath>
</defs>
</svg>
