<svg width="25" height="24" viewBox="0 0 25 24" fill="none" xmlns="http://www.w3.org/2000/svg">
<g id="Lace symbol">
<path id="Vector" d="M4.53825 10.6035C4.41799 10.9141 4.31416 11.231 4.22719 11.5529C3.84339 12.9724 3.77804 14.4612 4.03596 15.9097C4.04817 15.9818 4.06185 16.0542 4.07702 16.1255C4.13176 16.3994 4.19908 16.6734 4.27712 16.9413C4.36441 17.2415 4.46835 17.5416 4.58634 17.8332C5.38064 19.8123 6.79391 21.4717 8.60873 22.5563C9.03417 22.811 9.47879 23.0312 9.93843 23.2148C11.6673 23.9084 13.5569 24.0799 15.3797 23.7087C17.2024 23.3374 18.8804 22.4393 20.2114 21.1225C21.0486 20.2945 21.728 19.3167 22.2153 18.2385C22.1322 18.3275 22.0472 18.4151 21.9601 18.5011C20.5518 19.9038 18.7776 20.8688 16.8466 21.2824C16.7593 21.3259 16.6705 21.3661 16.581 21.4058C15.216 22.0057 13.71 22.196 12.2416 21.9543C10.7732 21.7126 9.40384 21.0489 8.29582 20.0418C8.16957 19.9273 8.04628 19.8077 7.92594 19.6831L7.87194 19.6257C6.78268 18.4776 6.06359 17.0205 5.81025 15.4478C5.78732 15.3071 5.76809 15.1645 5.75218 15.0223C5.72205 14.7388 5.70674 14.4538 5.70632 14.1687C5.70031 12.6172 6.14701 11.0986 6.99016 9.80428C7.2023 9.47706 7.43872 9.16672 7.69736 8.87595C7.8061 8.75325 7.91928 8.63092 8.03949 8.51347C9.46651 7.09034 11.381 6.28271 13.382 6.2598C13.4134 6.2598 13.4489 6.2598 13.4848 6.2598H13.5673C13.8922 6.26225 14.2166 6.28581 14.5386 6.33035C15.8946 6.5139 17.1779 7.0606 18.2566 7.91422C18.2107 7.74048 18.1578 7.56713 18.0986 7.39639C18.0517 7.26131 18.0017 7.12922 17.9459 6.99864C17.6378 6.25108 17.2047 5.56315 16.6657 4.96524L16.635 4.94122C16.1823 4.78199 15.7183 4.6583 15.2469 4.57124C13.4487 4.23379 11.593 4.42104 9.89553 5.11121C9.63662 5.21665 9.38436 5.33259 9.14616 5.45605C8.62026 5.72622 8.12025 6.04542 7.6526 6.40952L7.61044 6.44142C7.31459 6.67544 7.03182 6.92598 6.76342 7.19189C6.16457 7.78657 5.64515 8.45834 5.21845 9.19002C4.97389 9.6088 4.76133 10.046 4.58264 10.4977L4.57783 10.6043L4.53825 10.6035ZM10.3409 3.20013C9.76181 3.20042 9.184 3.25443 8.61465 3.36148C8.54068 3.37424 8.4667 3.38812 8.39495 3.40501C8.12863 3.46017 7.86085 3.52846 7.59527 3.60989C7.4403 3.65566 7.28643 3.7067 7.13367 3.75998C6.98091 3.81326 6.84036 3.8688 6.69537 3.92846C4.73949 4.72814 3.10218 6.16643 2.04233 8.01591C1.90733 8.24855 1.77898 8.49358 1.66062 8.74387C1.56704 8.94274 1.47901 9.14537 1.39949 9.348C0.498371 11.644 0.490329 14.2014 1.37699 16.5032C2.26365 18.8049 3.97884 20.6792 6.17569 21.7469C6.22008 21.7687 6.26446 21.7897 6.30885 21.8103C6.22008 21.7248 6.13266 21.6372 6.04661 21.5477C4.66311 20.1166 3.71154 18.3143 3.30398 16.3529C3.26699 16.2865 3.2215 16.1852 3.17748 16.0805C3.1072 15.9173 3.04358 15.7495 2.98403 15.5788C2.6435 14.6006 2.49664 13.5639 2.55186 12.528C2.60708 11.4922 2.8633 10.4776 3.30583 9.54237C3.45623 9.22379 3.62685 8.91545 3.81662 8.61929C4.03011 8.28764 4.26827 7.97303 4.52901 7.6782C4.65957 7.5281 4.79458 7.38701 4.93587 7.25005C5.20002 6.99159 5.48263 6.75329 5.7814 6.5371C6.23936 6.20515 6.73146 5.92459 7.24907 5.70033C8.46101 4.76431 9.86576 4.1182 11.3584 3.81026C11.9119 3.6935 12.4739 3.62284 13.0387 3.599L12.9108 3.56148C12.0751 3.32177 11.2108 3.20017 10.3423 3.20013H10.3409ZM11.9742 20.3064C12.0153 20.3188 12.0563 20.3304 12.0974 20.3417C13.4958 20.7332 14.9632 20.8011 16.3909 20.5402L16.4279 20.5327C16.4911 20.521 16.5555 20.5094 16.6191 20.4951C16.8817 20.4415 17.1407 20.3751 17.4162 20.2918C17.6918 20.2085 17.9651 20.1143 18.2429 20.0024L18.3365 20.1315L18.2791 19.9871C19.4416 19.5119 20.5002 18.8087 21.3942 17.9176C21.9939 17.3221 22.5142 16.6496 22.9421 15.9173C23.1898 15.4916 23.4046 15.0471 23.5846 14.5878C24.2798 12.8311 24.4562 10.9072 24.0924 9.05057C23.7286 7.19394 22.8402 5.4848 21.5355 4.13146C20.7219 3.28591 19.7622 2.5991 18.7041 2.10519C19.8894 3.25352 20.7899 4.67012 21.3321 6.23916C21.4834 6.6757 21.607 7.12165 21.702 7.57425C21.7364 7.63804 21.7815 7.73823 21.8236 7.83692C22.0696 8.42087 22.2452 9.0328 22.3466 9.65944C22.4173 10.0871 22.4535 10.52 22.455 10.9536C22.4584 12.5011 22.0119 14.0152 21.1712 15.3064C20.9596 15.6339 20.7231 15.9441 20.464 16.2343C20.3552 16.3574 20.2421 16.4797 20.1218 16.5972L20.0667 16.6501C19.3934 17.3088 18.6078 17.8378 17.748 18.2114C16.9051 18.8538 15.9693 19.3601 14.9739 19.7124C14.0093 20.0581 12.9999 20.2583 11.9779 20.3068L11.9742 20.3064ZM8.34945 18.9555C8.80331 19.1182 9.26906 19.2444 9.7424 19.333C10.9683 19.5686 12.228 19.5567 13.4493 19.2978C13.8745 19.2078 14.2934 19.0895 14.7032 18.9435C14.8474 18.8925 14.9902 18.837 15.1296 18.7792C15.3749 18.679 15.6138 18.5687 15.8413 18.4516C17.4905 17.6124 18.8642 16.3056 19.7956 14.6899C19.9291 14.4606 20.0575 14.2156 20.1777 13.96C20.2676 13.7705 20.3497 13.5784 20.4266 13.3852L20.4377 13.3551C20.5667 13.0322 20.6778 12.7022 20.7706 12.3668C21.1675 10.9501 21.2353 9.45948 20.9689 8.01178V8.00728C20.9581 7.93711 20.9441 7.86806 20.9293 7.7994C20.8764 7.5311 20.808 7.25643 20.7262 6.97876C20.6804 6.82153 20.6312 6.66543 20.5783 6.50934C20.5283 6.36637 20.4762 6.22528 20.4196 6.08682C19.6371 4.10335 18.2268 2.44012 16.4105 1.35884C16.166 1.21213 15.9149 1.07667 15.6648 0.956217C15.4799 0.866536 15.295 0.782482 15.1056 0.706309C12.8398 -0.219709 10.3114 -0.235725 8.03437 0.661514C5.75733 1.55875 3.90248 3.30192 2.84681 5.53672C2.82721 5.57875 2.8076 5.6204 2.78837 5.66243C3.92143 4.45759 5.31961 3.54205 6.86847 2.99075C7.29562 2.83838 7.73167 2.71306 8.17413 2.61551C8.26657 2.56586 8.36151 2.52114 8.45856 2.48155C8.61095 2.41551 8.76778 2.35397 8.92683 2.29656C9.36099 2.14213 9.80748 2.026 10.2613 1.94947C12.1938 1.63181 14.1734 2.06283 15.8073 3.15698C16.1279 3.36932 16.4317 3.60669 16.716 3.86692C16.8577 3.99413 16.9953 4.12696 17.1277 4.2673C17.7767 4.95126 18.2977 5.74923 18.6653 6.62228C18.7344 6.78663 18.7981 6.95249 18.8572 7.12284C19.0094 7.55965 19.1235 8.00915 19.1983 8.46619C19.2227 8.60803 19.2415 8.7525 19.2574 8.89696C19.2881 9.18071 19.3037 9.46593 19.3041 9.75138C19.304 10.9314 19.0414 12.0962 18.5358 13.1589C18.3863 13.4773 18.2153 13.785 18.0243 14.0797C17.3239 15.1607 16.373 16.0511 15.255 16.6731C14.1369 17.295 12.8856 17.6296 11.6106 17.6475C11.2261 17.6529 10.8417 17.6287 10.4607 17.575C9.65909 17.4629 8.87957 17.2249 8.15009 16.8696C7.65431 16.6287 7.18463 16.3361 6.74863 15.9964C7.03906 17.0996 7.58974 18.1146 8.35315 18.9537L8.34945 18.9555ZM6.52892 14.7154C7.09726 15.3026 7.76277 15.7841 8.49518 16.1379C8.65793 16.2172 8.82314 16.2897 8.99081 16.3555C7.818 15.0877 7.09279 13.4611 6.92876 11.7304C6.5884 12.6847 6.45309 13.7018 6.53188 14.7135L6.52892 14.7154ZM16.0048 7.54836C17.1725 8.81514 17.8998 10.4345 18.0761 12.1596C18.416 11.2143 18.5522 10.206 18.4755 9.20278L18.4729 9.20015C17.7767 8.47738 16.9362 7.91405 16.0077 7.54799L16.0048 7.54836Z" fill="url(#paint0_radial_5922_1347)"/>
</g>
<defs>
<radialGradient id="paint0_radial_5922_1347" cx="0" cy="0" r="1" gradientUnits="userSpaceOnUse" gradientTransform="translate(12.4987 11.9491) scale(11.7805 11.9513)">
<stop stop-color="#FDC300"/>
<stop offset="0.11" stop-color="#FDC205"/>
<stop offset="0.25" stop-color="#FDBF13"/>
<stop offset="0.39" stop-color="#FDB92B"/>
<stop offset="0.54" stop-color="#FEB24C"/>
<stop offset="0.7" stop-color="#FEA977"/>
<stop offset="0.86" stop-color="#FF9DAA"/>
<stop offset="1" stop-color="#FF92DE"/>
</radialGradient>
</defs>
</svg>
