<svg width="85" height="102" viewBox="0 0 85 102" fill="none" xmlns="http://www.w3.org/2000/svg">
<path d="M15.0518 64.9141H17.6905V81.526H15.0518V64.9141Z" fill="white"/>
<path d="M32.5801 69.8019V81.5253H30.2188L30.1951 79.96C29.2986 81.0993 27.7418 81.7873 25.9488 81.7873C22.5273 81.7873 20.168 79.2692 20.168 75.6622C20.168 72.0552 22.5273 69.5371 25.9488 69.5371C27.7655 69.5371 29.2986 70.2252 30.1951 71.3644L30.2188 69.7991L32.5801 69.8019ZM29.9373 75.6636C29.9373 73.4803 28.4752 71.9613 26.3751 71.9613C24.2749 71.9613 22.8128 73.4803 22.8128 75.6636C22.8128 77.8468 24.2756 79.3652 26.3751 79.3652C28.4745 79.3652 29.9373 77.8468 29.9373 75.6636V75.6636Z" fill="white"/>
<path d="M34.7617 75.6642C34.7617 72.0333 37.2651 69.5391 40.9668 69.5391C42.665 69.5391 44.1278 70.1318 45.3782 71.3419L43.7746 73.0746C43.0669 72.3627 42.052 71.9592 41.0135 71.9592C38.891 71.9592 37.4038 73.4782 37.4038 75.6614C37.4038 77.8685 38.8673 79.363 41.0135 79.363C42.1461 79.363 43.1846 78.9356 43.8924 78.153L45.5203 79.9327C44.2226 81.1904 42.7834 81.7838 40.9871 81.7838C37.2157 81.7865 34.7617 79.3658 34.7617 75.6642Z" fill="white"/>
<path d="M58.9069 76.66H49.5888C49.8006 78.3689 51.2127 79.4606 53.2688 79.4606C54.5902 79.4606 55.9075 78.9842 56.6186 78.2498L58.2235 79.8151C57.0672 81.0728 55.2032 81.8568 53.1978 81.8568C49.352 81.8568 46.875 79.4123 46.875 75.6637C46.875 72.0329 49.3046 69.5645 52.915 69.5645C57.0199 69.5645 59.2851 72.2704 58.9069 76.66ZM49.6111 74.5952H56.3832C56.1944 72.9346 54.9204 71.8661 52.9853 71.8661C51.145 71.8661 49.942 72.8632 49.6118 74.5952H49.6111Z" fill="white"/>
<path d="M22.4388 34.3723C22.2188 34.9356 22.0289 35.5104 21.8698 36.0941C21.1677 38.6688 21.0482 41.369 21.52 43.9962C21.5423 44.1269 21.5674 44.2582 21.5951 44.3875C21.6952 44.8843 21.8184 45.3811 21.9611 45.8671C22.1208 46.4115 22.3109 46.956 22.5268 47.4848C23.9797 51.0742 26.565 54.084 29.8847 56.0511C30.663 56.513 31.4763 56.9124 32.3171 57.2455C35.4796 58.5034 38.9362 58.8144 42.2704 58.1411C45.6047 57.4678 48.6741 55.8388 51.1089 53.4506C52.6404 51.9488 53.8831 50.1754 54.7747 48.2198C54.6226 48.3813 54.467 48.5401 54.3078 48.6962C51.7316 51.2402 48.4862 52.9904 44.9539 53.7405C44.7942 53.8195 44.6318 53.8923 44.4681 53.9645C41.971 55.0524 39.2163 55.3977 36.5302 54.9592C33.8441 54.5208 31.3392 53.317 29.3123 51.4906C29.0814 51.2828 28.8559 51.0659 28.6357 50.84L28.537 50.7358C26.5444 48.6536 25.229 46.0107 24.7656 43.1584C24.7237 42.9032 24.6885 42.6446 24.6594 42.3867C24.6043 41.8724 24.5763 41.3556 24.5755 40.8384C24.5645 38.0245 25.3816 35.2703 26.924 32.9227C27.312 32.3292 27.7445 31.7663 28.2176 31.239C28.4165 31.0164 28.6236 30.7946 28.8435 30.5815C31.4538 28.0004 34.956 26.5356 38.6162 26.494C38.6737 26.494 38.7387 26.494 38.8043 26.494H38.9552C39.5495 26.4985 40.143 26.5412 40.7319 26.622C43.2124 26.9549 45.5599 27.9465 47.533 29.4947C47.4492 29.1796 47.3524 28.8651 47.2441 28.5555C47.1582 28.3105 47.0669 28.0709 46.9647 27.8341C46.4012 26.4782 45.609 25.2305 44.623 24.1461L44.5669 24.1025C43.7388 23.8137 42.8899 23.5894 42.0276 23.4315C38.7382 22.8195 35.3437 23.1591 32.2386 24.4108C31.765 24.6021 31.3036 24.8124 30.8678 25.0363C29.9058 25.5263 28.9912 26.1052 28.1357 26.7656L28.0586 26.8234C27.5174 27.2479 27.0002 27.7023 26.5092 28.1846C25.4137 29.2632 24.4636 30.4815 23.6831 31.8086C23.2357 32.5681 22.8469 33.361 22.52 34.1804L22.5112 34.3737L22.4388 34.3723ZM33.0532 20.9447C31.994 20.9452 30.9371 21.0432 29.8956 21.2374C29.7602 21.2605 29.6249 21.2857 29.4937 21.3163C29.0065 21.4163 28.5167 21.5402 28.0309 21.6879C27.7474 21.7709 27.4659 21.8635 27.1865 21.9601C26.907 22.0568 26.6499 22.1575 26.3847 22.2657C22.8069 23.7161 19.8119 26.3247 17.8731 29.6791C17.6262 30.1011 17.3914 30.5455 17.1749 30.9994C17.0037 31.3601 16.8427 31.7276 16.6972 32.0951C15.0489 36.2593 15.0341 40.8978 16.6561 45.0725C18.278 49.2471 21.4155 52.6465 25.4341 54.5831C25.5153 54.6226 25.5965 54.6607 25.6777 54.6981C25.5153 54.5429 25.3554 54.3841 25.198 54.2217C22.6672 51.6262 20.9265 48.3573 20.181 44.7999C20.1134 44.6795 20.0301 44.4957 19.9496 44.3058C19.8211 44.0098 19.7047 43.7056 19.5958 43.3959C18.9728 41.6218 18.7042 39.7415 18.8052 37.8628C18.9062 35.984 19.3749 34.1438 20.1844 32.4476C20.4595 31.8698 20.7716 31.3106 21.1188 30.7735C21.5093 30.1719 21.9449 29.6013 22.4219 29.0666C22.6607 28.7944 22.9077 28.5385 23.1661 28.2901C23.6493 27.8213 24.1663 27.3891 24.7128 26.997C25.5506 26.3949 26.4507 25.8861 27.3976 25.4793C29.6145 23.7817 32.1842 22.6098 34.9145 22.0513C35.927 21.8395 36.9551 21.7114 37.9883 21.6682L37.7542 21.6001C36.2255 21.1653 34.6445 20.9448 33.0559 20.9447H33.0532ZM36.0411 51.9704C36.1162 51.9928 36.1913 52.0139 36.2664 52.0344C38.8245 52.7446 41.5086 52.8676 44.1203 52.3944L44.188 52.3808C44.3037 52.3597 44.4214 52.3386 44.5378 52.3127C45.0181 52.2154 45.4918 52.0949 45.9958 51.9438C46.4999 51.7928 46.9999 51.6219 47.508 51.4191L47.6792 51.6532L47.5743 51.3912C49.7008 50.5295 51.6372 49.254 53.2726 47.6379C54.3695 46.5577 55.3214 45.338 56.1042 44.0098C56.5571 43.2377 56.95 42.4316 57.2794 41.5985C58.5511 38.4125 58.8738 34.923 58.2082 31.5557C57.5427 28.1883 55.9176 25.0884 53.5311 22.6339V22.6339C52.0428 21.1003 50.2873 19.8546 48.3517 18.9588C50.5198 21.0415 52.1671 23.6108 53.1589 26.4566C53.4358 27.2484 53.6618 28.0572 53.8355 28.8781C53.8985 28.9938 53.981 29.1755 54.0581 29.3545C54.5081 30.4136 54.8293 31.5234 55.0148 32.66C55.144 33.4357 55.2103 34.2207 55.2131 35.0073C55.2193 37.8139 54.4024 40.56 52.8646 42.9018C52.4775 43.4958 52.045 44.0585 51.571 44.5849C51.372 44.8081 51.165 45.03 50.9451 45.243L50.8443 45.3389C49.6127 46.5336 48.1755 47.4931 46.6027 48.1708C45.0608 49.3358 43.3491 50.2541 41.5283 50.8931C39.7637 51.52 37.9172 51.8832 36.0478 51.9711L36.0411 51.9704ZM29.4104 49.5203C30.2407 49.8153 31.0926 50.0442 31.9585 50.205C34.201 50.6323 36.5052 50.6106 38.7393 50.141C39.5171 49.9779 40.2833 49.7633 41.033 49.4986C41.2969 49.406 41.558 49.3053 41.8131 49.2005C42.2617 49.0188 42.6988 48.8187 43.1149 48.6063C46.1318 47.0843 48.6446 44.7142 50.3484 41.7837C50.5926 41.3678 50.8274 40.9234 51.0473 40.46C51.2117 40.1163 51.3619 39.7678 51.5026 39.4173L51.5229 39.3629C51.7588 38.7772 51.9621 38.1787 52.1319 37.5703C52.8578 35.0009 52.9819 32.2973 52.4945 29.6716V29.6634C52.4749 29.5362 52.4492 29.411 52.4221 29.2864C52.3254 28.7998 52.2002 28.3016 52.0507 27.798C51.9668 27.5129 51.8768 27.2297 51.78 26.9466C51.6887 26.6873 51.5933 26.4314 51.4898 26.1803C50.0584 22.5829 47.4786 19.5663 44.1562 17.6052C43.7089 17.3391 43.2495 17.0934 42.7921 16.8749C42.4538 16.7123 42.1155 16.5598 41.7691 16.4217C37.6244 14.7421 32.9994 14.7131 28.8341 16.3404C24.6688 17.9677 21.2758 21.1293 19.3447 25.1826C19.3089 25.2588 19.273 25.3344 19.2378 25.4106C21.3105 23.2254 23.8681 21.5649 26.7014 20.565C27.4827 20.2886 28.2804 20.0613 29.0897 19.8844C29.2588 19.7943 29.4325 19.7132 29.61 19.6414C29.8888 19.5216 30.1757 19.41 30.4666 19.3059C31.2608 19.0258 32.0776 18.8152 32.9078 18.6764C36.4428 18.1002 40.064 18.882 43.0526 20.8664C43.6392 21.2516 44.195 21.6821 44.715 22.1541C44.9742 22.3848 45.2259 22.6257 45.4681 22.8802C46.6552 24.1207 47.6083 25.568 48.2807 27.1515C48.4072 27.4496 48.5236 27.7504 48.6318 28.0594C48.9102 28.8516 49.1189 29.6669 49.2557 30.4958C49.3003 30.753 49.3348 31.0151 49.3639 31.2771C49.42 31.7917 49.4485 32.309 49.4492 32.8267C49.4491 34.9669 48.9688 37.0795 48.0439 39.007C47.7703 39.5845 47.4576 40.1425 47.1081 40.6771C45.8269 42.6376 44.0876 44.2526 42.0424 45.3806C39.9972 46.5087 37.7083 47.1154 35.376 47.1479C34.6725 47.1577 33.9693 47.1138 33.2725 47.0165C31.8061 46.8131 30.3802 46.3815 29.0458 45.7371C28.1389 45.3002 27.2797 44.7694 26.4821 44.1534C27.0134 46.1543 28.0208 47.9951 29.4172 49.5169L29.4104 49.5203ZM26.0802 41.8299C27.1199 42.895 28.3373 43.7682 29.677 44.41C29.9747 44.5538 30.2769 44.6854 30.5837 44.8047C28.4383 42.5052 27.1117 39.555 26.8116 36.416C26.1891 38.1469 25.9415 39.9916 26.0857 41.8265L26.0802 41.8299ZM43.4139 28.8311C45.5499 31.1287 46.8805 34.0657 47.2029 37.1946C47.8247 35.4801 48.0739 33.6513 47.9336 31.8317L47.9289 31.827C46.6553 30.5161 45.1178 29.4944 43.4193 28.8304L43.4139 28.8311Z" fill="url(#paint0_radial_5731_15104)"/>
<circle cx="75" cy="92" r="10" fill="#FDC300"/>
<path d="M75 90V92L76.5 93.5M79.5 92C79.5 94.4853 77.4853 96.5 75 96.5C72.5147 96.5 70.5 94.4853 70.5 92C70.5 89.5147 72.5147 87.5 75 87.5C77.4853 87.5 79.5 89.5147 79.5 92Z" stroke="white" stroke-linecap="round" stroke-linejoin="round"/>
<defs>
<radialGradient id="paint0_radial_5731_15104" cx="0" cy="0" r="1" gradientUnits="userSpaceOnUse" gradientTransform="translate(37.0005 36.8128) scale(21.5496 21.6761)">
<stop stop-color="#FDC300"/>
<stop offset="0.11" stop-color="#FDC205"/>
<stop offset="0.25" stop-color="#FDBF13"/>
<stop offset="0.39" stop-color="#FDB92B"/>
<stop offset="0.54" stop-color="#FEB24C"/>
<stop offset="0.7" stop-color="#FEA977"/>
<stop offset="0.86" stop-color="#FF9DAA"/>
<stop offset="1" stop-color="#FF92DE"/>
</radialGradient>
</defs>
</svg>
